# xmcd
#
# Track frame offsets:
#  150
#  28966
#  58227
#  87517
#  108223
#  130293
#  156715
#  182079
#
# Disc length: 2661 seconds
#
# Revision: 1
# Processed by: cddbd v1.5.1PL2 Copyright (c) Steve Scherf et al.
# Submitted via: Collectorz.com_Music_Collector 6.9
#
DISCID=740a6308
DTITLE=Carter, James - Chestnut, Cyrus - Jackson, Ali - Veal, Reginald - Gold Sounds
DYEAR=2005
DGENRE=Jazz
TTITLE0=Stereo
TTITLE1=My First Mine
TTITLE2=Cut Your Hair
TTITLE3=Summer Babe
TTITLE4=Blue Hawaiian
TTITLE5=Here
TTITLE6=Platform Blues
TTITLE7=Trigger Cut
EXTD=
EXTT0=
EXTT1=
EXTT2=
EXTT3=
EXTT4=
EXTT5=
EXTT6=
EXTT7=
PLAYORDER=
